<svg id="Capa_1" enable-background="new 0 0 512.011 512.011" height="512" viewBox="0 0 512.011 512.011" width="512" xmlns="http://www.w3.org/2000/svg"><g id="XMLID_51_"><g id="XMLID_1271_"><path id="XMLID_361_" d="m164.963 351.672h-46.556c-59.871 0-108.407 48.536-108.407 108.407v41.926h400v-41.926c0-59.872-48.536-108.407-108.407-108.407h-47.811z" fill="#80b6ff"/></g><g id="XMLID_1298_"><path id="XMLID_359_" d="m68.207 364.93c13.9 39.645 21 81.353 21 123.363v12.952h82.793v-144.705z" fill="#ff7d97"/></g><g id="XMLID_1240_"><circle id="XMLID_358_" cx="209.999" cy="138.759" fill="#ffe6b4" r="128.754"/></g><g id="XMLID_1162_"><path id="XMLID_3_" d="m284 195.672v59.836c0 40.869-33.131 74-74 74-40.869 0-74-33.131-74-74v-59.836z" fill="#f2b394"/></g><g id="XMLID_715_"><path id="XMLID_356_" d="m284 197.64v198.365l75-35-35-167z" fill="#fff"/></g><g id="XMLID_721_"><path id="XMLID_354_" d="m136 197.64v198.365l-75-35 35-167z" fill="#fff"/></g><g id="XMLID_1163_"><path id="XMLID_350_" d="m310 155.672h-200c-11.046 0-20 8.954-20 20 0 11.046 8.954 20 20 20h200c11.046 0 20-8.954 20-20 0-11.046-8.955-20-20-20z" fill="#ffcd69"/></g><g id="XMLID_1241_"><path id="XMLID_311_" d="m210 62.005c-51.731 0-95 41.936-95 93.667h190c0-51.731-43.269-93.667-95-93.667z" fill="#fff"/></g><g id="XMLID_812_"><path d="m229.575 270.005h-39.035c-11.28 0-20.425 9.145-20.425 20.425v47.659c0 22.06 17.883 39.942 39.942 39.942 22.06 0 39.942-17.883 39.942-39.942v-47.659c.001-11.28-9.144-20.425-20.424-20.425z" fill="#fff"/></g><g id="XMLID_1210_"><g id="XMLID_33_"><path id="XMLID_5_" d="m446.01 502.005h-40v-131.007c0-22.728 13.492-43.298 34.374-52.407 13.807-6.023 22.28-19.662 21.586-34.748-.844-18.353-15.882-33.39-34.234-34.234-9.975-.459-19.405 3.065-26.584 9.92-7.185 6.862-11.142 16.11-11.142 26.04h-40c0-20.964 8.351-40.485 23.515-54.967 15.157-14.477 35.059-21.922 56.048-20.952 18.868.868 36.673 8.76 50.134 22.221s21.353 31.266 22.221 50.134c.725 15.766-3.345 31.096-11.77 44.332-8.175 12.843-19.856 22.842-33.782 28.917-6.297 2.747-10.366 8.926-10.366 15.743z" fill="#d1a184"/></g></g><g id="XMLID_364_"><path id="XMLID_365_" d="m210.055 296.315c-2.63 0-5.21 1.07-7.07 2.93s-2.93 4.44-2.93 7.07 1.07 5.21 2.93 7.07 4.44 2.93 7.07 2.93c2.64 0 5.21-1.07 7.07-2.93s2.93-4.44 2.93-7.07-1.07-5.21-2.93-7.07-4.43-2.93-7.07-2.93z"/><path id="XMLID_366_" d="m294.495 492.005c-2.63 0-5.21 1.07-7.07 2.93s-2.93 4.44-2.93 7.07 1.07 5.21 2.93 7.07 4.44 2.93 7.07 2.93c2.64 0 5.22-1.07 7.07-2.93 1.87-1.86 2.94-4.44 2.94-7.07s-1.07-5.21-2.94-7.07c-1.85-1.86-4.43-2.93-7.07-2.93z"/><path id="XMLID_369_" d="m511.917 281.546c-.983-21.365-9.911-41.517-25.139-56.746-15.229-15.228-35.381-24.156-56.743-25.139-23.738-1.098-46.26 7.323-63.417 23.709-8.83 8.433-15.6 18.383-20.11 29.282l-11.318-54.005c8.998-18.746 13.563-38.874 13.563-59.888 0-76.509-62.244-138.754-138.753-138.754s-138.754 62.245-138.754 138.754c0 21.015 4.566 41.143 13.564 59.891l-33.597 160.304c-.26 1.24-.27 2.482-.073 3.676-31.846 21.963-51.14 58.153-51.14 97.45v41.926c0 5.523 4.477 10 10 10h239.5c5.523 0 10-4.477 10-10s-4.477-10-10-10h-67.5v-112.544c7.98 5.407 17.599 8.569 27.943 8.569 19.014 0 35.575-10.683 44.01-26.359h20.047v34.333c0 3.418 1.746 6.599 4.628 8.435 1.631 1.039 3.498 1.565 5.372 1.565 1.439 0 2.883-.311 4.229-.938l63.546-29.655c21.331 12.677 37.24 33.08 44.235 56.845v59.748h-56.51c-5.523 0-10 4.477-10 10s4.477 10 10 10h106.51c5.523 0 10-4.477 10-10v-131.007c0-2.839 1.713-5.421 4.365-6.577 15.756-6.874 28.973-18.186 38.22-32.713 9.536-14.983 14.143-32.329 13.322-50.162zm-237.917-26.038c0 14.861-5.082 28.917-14.115 40.123v-5.201c0-16.776-13.649-30.425-30.425-30.425h-39.034c-16.776 0-30.425 13.649-30.425 30.425v5.055c-8.961-11.182-14-25.18-14-39.978v-49.836h128v49.837zm-128 54.438c4.111 4.821 8.793 9.213 14 13.067v15.076c0 1.206.058 2.398.143 3.583h-14.143zm-36-124.274c-5.514 0-10-4.486-10-10s4.486-10 10-10h200c5.514 0 10 4.486 10 10s-4.486 10-10 10zm15.604-40c5.038-41.436 40.966-73.667 84.396-73.667s79.358 32.231 84.396 73.667zm84.396-125.667c65.481 0 118.754 53.273 118.754 118.754 0 4.372-.241 8.696-.7 12.971-3.881-2.934-8.493-4.949-13.512-5.715-2.263-24.015-12.939-46.355-30.641-63.715-19.921-19.536-46.166-30.295-73.901-30.295s-53.98 10.759-73.901 30.295c-17.702 17.36-28.378 39.7-30.64 63.715-5.019.765-9.631 2.781-13.513 5.715-.459-4.275-.7-8.599-.7-12.971 0-65.481 53.273-118.754 118.754-118.754zm-106.097 185.043c1.969.408 4.008.624 6.097.624h16v174.631l-53.586-25.007zm-83.903 255.032c0-32.61 15.989-62.647 42.388-80.913 11.152 35.334 16.819 71.985 16.819 109.127v3.711h-59.207zm79.207 31.925v-3.711c0-35.759-4.976-71.087-14.783-105.322l47.348 22.095c1.345.627 2.789.938 4.229.938 1.875 0 3.742-.527 5.372-1.565 2.883-1.836 4.628-5.017 4.628-8.435v-34.333h16v130.333zm140.678-153.916c0 16.51-13.432 29.942-29.942 29.942s-29.943-13.432-29.943-29.942v-47.658c0-5.749 4.677-10.425 10.425-10.425h39.034c5.749 0 10.425 4.677 10.425 10.425v47.658zm19.857 3.583c.084-1.185.143-2.377.143-3.583v-14.989c5.254-3.875 9.973-8.297 14.115-13.154v31.726zm34.258-136h16c2.089 0 4.128-.216 6.097-.624l31.489 150.249-53.586 25.006zm74.858 156.965c.198-1.196.189-2.44-.072-3.683l-13.284-63.385h34.507c5.523 0 10-4.477 10-10 0-7.172 2.858-13.852 8.048-18.808 5.185-4.95 12.007-7.492 19.218-7.163 13.244.609 24.095 11.461 24.705 24.705.501 10.91-5.62 20.771-15.595 25.122-24.527 10.699-40.375 34.868-40.375 61.573v17.651c-7.578-10.005-16.741-18.807-27.152-26.012zm112.865-41.669c-7.102 11.158-17.25 19.845-29.345 25.121-9.943 4.337-16.368 14.115-16.368 24.909v121.008h-20v-121.008c0-18.75 11.137-35.723 28.372-43.241 17.638-7.694 28.463-25.112 27.577-44.373-1.079-23.461-20.303-42.685-43.764-43.764-12.711-.593-24.776 3.917-33.95 12.678-6.712 6.41-11.219 14.452-13.157 23.271h-20.335c2.157-14.355 8.958-27.496 19.679-37.735 13.167-12.575 30.444-19.035 48.682-18.194 16.372.753 31.828 7.608 43.522 19.303 11.694 11.694 18.549 27.15 19.302 43.522.631 13.699-2.902 27.013-10.215 38.503z"/></g></g></svg>